<?xml version="1.0" encoding="utf-8"?>
<!-- Generator: Adobe Illustrator 22.0.1, SVG Export Plug-In . SVG Version: 6.00 Build 0)  -->
<svg version="1.1" id="Layer_1" xmlns="http://www.w3.org/2000/svg" xmlns:xlink="http://www.w3.org/1999/xlink" x="0px" y="0px"
	 viewBox="0 0 618 850" style="enable-background:new 0 0 618 850;" xml:space="preserve">
<style type="text/css">
	.st0{fill:#CC0000;}
	.st1{fill:#FFFFFF;}
	.st2{fill:#FFCC99;}
	.st3{fill:#CC9999;}
	.st4{fill:#009900;}
	.st5{fill:#F2F2F2;}
	.st6{fill:#333333;}
	.st7{fill:#CC6600;}
	.st8{fill:#42210B;}
</style>
<title>avatar_boy_2</title>
<rect y="0" class="st0" width="618" height="850"/>
<g>
	<g>
		<g>
			<path class="st1" d="M158.5,253.7c-0.7-0.3-1.4-0.5-2-0.9l8.2-18.3l1.2,0.5L158.5,253.7z"/>
		</g>
		<g>
			<path class="st1" d="M292.9,663.4c-37.2,0-67.5-30.3-67.5-67.5v-37.7c-22.4-14.3-41.4-35.5-55.1-61.7
				c-14.9-28.6-22.8-61.7-22.8-95.8c0-15.2,1.6-30.2,4.6-44.7c-5.9,1.1-11.7,1.7-17.4,1.7c-8.8,0-17.4-1.4-25.5-4.1
				c-15-5.1-30.1-18.4-27.7-35.7c2.4-17.9,20.1-24.9,32.9-30c1.2-0.5,2.3-0.9,3.4-1.4c0,0,0.1,0,0.1,0c-3.6-10.3-6.6-23.6-0.2-35.4
				c4.9-9,14.7-15.3,26.3-16.8c1.9-0.3,4-0.4,6-0.4c5.2,0,10.4,0.8,14.9,1.9l0.3-0.9c0.6,0.2,1.2,0.3,1.9,0.3c2.1,0,4.7-0.8,7-2.3
				c3-1.8,5.9-4.5,8.9-7.3c1.6-1.5,3.2-3,5-4.5c18.8-15.9,44.8-23.9,77.4-23.9c6.5,0,13.4,0.3,20.5,1c28.5,2.6,54,8.8,75.9,18.7
				c21.2,9.5,40.2,23.3,55.1,40c16.1,18,26.9,38.9,31.3,60.5c1.2,5.9,2.3,13.6,0,21.4c-2.4,8.2-8.6,14.7-16,17.1
				c3.1,14.6,4.7,29.7,4.7,44.9c0,33.6-7.7,66.3-22.2,94.6c-13.3,25.9-31.8,47.1-53.7,61.6v39c0,37.2-30.3,67.5-67.5,67.5H292.9z"/>
		</g>
	</g>
</g>
<path class="st2" d="M293.9,481.1h1c31.7,0,57.5,25.7,57.5,57.4V597c0,31.7-25.7,57.5-57.5,57.5h-1c-31.7,0-57.4-25.7-57.4-57.5
	v-58.4C236.5,506.8,262.2,481.1,293.9,481.1z"/>
<path class="st3" d="M293.9,465.5h1c31.7,0.1,57.4,25.8,57.4,57.5v39c-3.9,14.6-115.9,51.1-115.9,19.5V523
	C236.6,491.3,262.2,465.6,293.9,465.5z"/>
<ellipse class="st2" cx="293.4" cy="401.8" rx="134.9" ry="167.5"/>
<path class="st4" d="M169.1,247.9c-7.4-2.1-15.1-3.7-22.7-2.7s-15.2,4.9-18.8,11.7c-4.6,8.5-2.1,18.9,1.1,28
	c0.7,1.9,1.4,3.9,0.9,5.9c-0.7,3.1-4,4.9-6.9,6.1c-12.4,5.1-28.4,10.1-30.2,23.4c-1.6,11.7,9.8,21.1,21,24.9
	c32.8,11,68.5-5.2,96.3-25.9c-1.7,6.3-2.9,13.9,1.7,18.3c2,1.7,4.4,2.8,7,3.4c19.6,5,40.4,0.4,56-12.5c-2.3,7.4,2,15.6,8.3,20
	s14.3,5.8,22,6.6c7.9,0.8,15.9,1,23.4-1.5s14.3-8,16.5-15.6c-2.3,7.6,7.5,12.8,15.2,14.7c15.5,3.9,33.3,7.3,46.5-1.8
	c2.2-1.5,4.2-3.3,6.8-4.1c5-1.5,10.2,1.5,15.4,0.9c5.5-0.6,9.9-5.5,11.5-10.8s0.9-11.1-0.2-16.5c-8.6-41.9-41.8-75.9-80.7-93.4
	c-22.9-10.3-47.7-15.6-72.7-17.8c-31.7-2.9-66.3,0.1-90.6,20.6c-5,4.3-9.5,9.2-15.2,12.6s-12.9,5.1-18.8,2.3"/>
<ellipse class="st5" cx="212.8" cy="371" rx="30.7" ry="31.2"/>
<circle class="st6" cx="217.2" cy="373" r="5.8"/>
<ellipse class="st5" cx="320.6" cy="372.1" rx="33.6" ry="32.6"/>
<ellipse class="st6" cx="331.4" cy="372.6" rx="6.3" ry="5.8"/>
<ellipse class="st7" cx="261" cy="391" rx="4.4" ry="14.6"/>
<path class="st8" d="M235.5,419.3c16.1,12.9,42.4,10.6,53.8-7.5c0.9-1.4-1.4-2.8-2.3-1.3c-10.4,16.6-34.9,18.8-49.6,7
	C236.1,416.5,234.2,418.3,235.5,419.3L235.5,419.3z"/>
</svg>
