<svg id="Layer_1" data-name="Layer 1" xmlns="http://www.w3.org/2000/svg" viewBox="0 0 618 850"><defs><style>.cls-1{fill:#ff6;}.cls-2{fill:#fff;}.cls-3{fill:#fc9;}.cls-4{fill:#c99;}.cls-5{fill:#60c;}.cls-6{fill:#f2f2f2;}.cls-7{fill:#333;}.cls-8{fill:#c60;}.cls-9{fill:#42210b;}</style></defs><title>avatar_boy_3</title><rect class="cls-1" width="618" height="850"/><path class="cls-2" d="M150.52,255.74c-.71-.26-1.4-.55-2.05-.86l8.15-18.25,1.19.49Z" transform="translate(9 2)"/><path class="cls-2" d="M284.93,665.42A67.52,67.52,0,0,1,217.48,598V560.26c-22.41-14.29-41.38-35.51-55.09-61.7-14.94-28.55-22.84-61.67-22.84-95.78a215.28,215.28,0,0,1,4.63-44.68,94.43,94.43,0,0,1-17.38,1.67,79.46,79.46,0,0,1-25.46-4.09c-15-5.05-30.07-18.38-27.71-35.73,2.42-17.88,20.06-24.87,32.93-30,1.15-.45,2.29-.9,3.39-1.35l.11,0c-3.56-10.34-6.63-23.56-.19-35.43,4.9-9,14.74-15.32,26.32-16.82a47.36,47.36,0,0,1,6-.37,67,67,0,0,1,14.85,1.86l.34-.86a5.52,5.52,0,0,0,1.94.31,14.25,14.25,0,0,0,7-2.28,61,61,0,0,0,8.94-7.28c1.59-1.47,3.23-3,5-4.46,18.78-15.87,44.83-23.92,77.44-23.92,6.54,0,13.45.32,20.55,1,28.49,2.57,54,8.85,75.89,18.67a165.26,165.26,0,0,1,55.14,40c16.06,18,26.88,38.88,31.3,60.5,1.2,5.89,2.29,13.65,0,21.36-2.44,8.24-8.63,14.69-16,17.05a216.26,216.26,0,0,1,4.67,44.9c0,33.6-7.68,66.31-22.21,94.58-13.32,25.91-31.82,47.1-53.71,61.61v39a67.52,67.52,0,0,1-67.46,67.45Z" transform="translate(9 2)"/><rect class="cls-3" x="236.48" y="481.09" width="115.88" height="173.33" rx="57.45" ry="57.45"/><path class="cls-4" d="M284.93,463.51h1A57.63,57.63,0,0,1,343.36,521v38.95c-3.9,14.6-115.88,51.07-115.88,19.47V521A57.62,57.62,0,0,1,284.93,463.51Z" transform="translate(9 2)"/><ellipse class="cls-3" cx="293.42" cy="401.78" rx="134.87" ry="167.49"/><path class="cls-5" d="M160.13,245.93c-7.37-2.06-15.06-3.66-22.66-2.68s-15.16,4.93-18.81,11.66c-4.59,8.47-2.12,18.93,1.06,28,.66,1.89,1.36,3.9.92,5.85-.7,3.12-4,4.89-6.92,6.1C101.29,299.94,85.34,305,83.53,318.3c-1.58,11.68,9.82,21.14,21,24.91,32.78,11,68.54-5.19,96.26-25.89-1.66,6.25-2.95,13.89,1.74,18.33a15.82,15.82,0,0,0,7,3.35,63.14,63.14,0,0,0,56-12.49c-2.32,7.38,2,15.59,8.3,20s14.28,5.83,22,6.58c7.85.78,15.94,1,23.43-1.48s14.34-8,16.52-15.61c-2.25,7.61,7.48,12.82,15.18,14.73,15.54,3.86,33.28,7.28,46.48-1.78,2.18-1.5,4.23-3.34,6.77-4.1,5-1.49,10.23,1.51,15.38.92,5.52-.64,9.86-5.48,11.45-10.81s.9-11.06-.22-16.51c-8.56-41.87-41.75-75.88-80.74-93.39-22.86-10.27-47.73-15.58-72.69-17.83-31.7-2.86-66.33.09-90.63,20.64-5,4.25-9.54,9.2-15.17,12.64s-12.87,5.15-18.82,2.32" transform="translate(9 2)"/><ellipse class="cls-6" cx="205.78" cy="421.05" rx="30.67" ry="31.16"/><circle class="cls-7" cx="210.16" cy="423" r="5.84"/><ellipse class="cls-6" cx="363.64" cy="420.12" rx="33.59" ry="32.62"/><ellipse class="cls-7" cx="374.35" cy="420.61" rx="6.33" ry="5.84"/><ellipse class="cls-8" cx="268" cy="437" rx="4.38" ry="14.61"/><path class="cls-9" d="M270.08,499.38c16.07,12.88,42.43,10.61,53.76-7.49.89-1.43-1.37-2.75-2.26-1.32-10.37,16.57-34.9,18.78-49.65,7-1.31-1-3.17.8-1.85,1.85Z" transform="translate(9 2)"/></svg>