<svg id="Layer_1" data-name="Layer 1" xmlns="http://www.w3.org/2000/svg" viewBox="0 0 618 850"><defs><style>.cls-1{fill:#609;}.cls-2{fill:#fff;}.cls-3{fill:#ff3;}.cls-4{fill:#fc9;}.cls-5{fill:#c99;}.cls-6{fill:#f2f2f2;}.cls-7{fill:#333;}.cls-8{fill:#c60;}.cls-9{fill:#42210b;}</style></defs><title>avatar_girl_4</title><rect class="cls-1" width="618" height="850"/><path class="cls-2" d="M286.88,663.13A67.26,67.26,0,0,1,219.69,596v-.45l-25.12-4.65c-7.32-1.35-16.42-3-24.27-8.19A30.93,30.93,0,0,1,157.58,566a233.33,233.33,0,0,1-63-12.68c-6.52-2.28-13.21-5.22-17.9-11.21a22.23,22.23,0,0,1-4.57-14.74c-15.79-8-27.19-23.94-29-41.78a53.34,53.34,0,0,1,14.74-41.79c-19.92-11.1-35-27.51-42.48-46.63-10.83-27.74-3.38-60.55,17.7-78,12.18-10.08,27.4-14.5,41.7-16.81A33.86,33.86,0,0,1,74,278.85c5-14.39,17.61-23.46,28-29.76A224.75,224.75,0,0,1,137,232c-10.66-6.53-21-15.32-26.7-27.83-9.49-20.88-2.69-48.28,16.17-65.14,14.46-12.93,35.26-20,58.57-20q1.8,0,3.6.06c13.36.42,26.44,3,39,6.17a36.11,36.11,0,0,1,.73-12.28c2.79-11.45,13.51-20.41,24.41-20.41a20.11,20.11,0,0,1,8.31,1.77A21.6,21.6,0,0,1,267,98.21c.06-.13.11-.26.17-.4,5-11.33,16.28-17.57,31.81-17.57a76.94,76.94,0,0,1,22.16,3.57c12.11,3.74,24.67,8.5,34.53,17.9a45.6,45.6,0,0,1,7.84,9.88l0,0c9.4-5,19.81-5.13,28.17-5.26,2.64,0,5.31-.08,8-.08,19.14,0,39.11,1.63,55.45,13.46,10.61,7.68,17.85,20.93,18.88,34.57a40.9,40.9,0,0,1-.41,10,48.52,48.52,0,0,1,14.5,5.32c29.77,16.57,46.65,52.92,41.52,86.38a88.76,88.76,0,0,1,36.72,18.55c14.16,12,23.42,27.8,26.1,44.54,2.88,18.09-3,37.8-15.76,52.75a62.83,62.83,0,0,1-22.16,16.77c9.9,12.17,14.15,28.84,13,43.39-1.63,20-11.41,37.64-21.06,51.57,7.56,10.92,11.18,24.62,10.28,39.38a74.84,74.84,0,0,1-18.46,44.72c-18,20.09-47.33,31.61-80.32,31.61-1.48,0-3,0-4.49-.07-2.53-.08-5.06-.22-7.51-.35-3.74-.21-7.28-.4-10.76-.4a45.54,45.54,0,0,0-14.29,1.86,70.56,70.56,0,0,0-9.19,4.09c-2.21,1.11-4.49,2.26-6.92,3.31a70.1,70.1,0,0,1-28.06,5.69,75.84,75.84,0,0,1-23.15-3.62,67.3,67.3,0,0,1-65.76,53.37Z" transform="translate(9 2)"/><path class="cls-3" d="M244.51,139.58c-19-5.58-38.33-11.19-58.16-11.81s-40.58,4.29-55.37,17.51-22,35.8-13.79,53.86c7.73,17,26.09,26.07,43.09,33.82a215,215,0,0,0-55.13,23.5c-10,6-20,13.58-23.86,24.61s1.8,25.86,13.34,27.6c-20.15,1.78-41.65,4.1-57.23,17-18.81,15.58-23.72,44.21-14.84,67S52,432.24,74.88,440.86c-15.67,7.56-25.69,25.45-23.95,42.77S66,516.49,82.88,520.8c-4.15,3.3-3.71,10.14-.44,14.31s8.46,6.28,13.46,8a224.15,224.15,0,0,0,61.27,12.2c8.93.51,19.59-.44,24.05-8.19-5.93-4.27-15.21.76-16.69,7.91s3.07,14.47,9.17,18.48,13.51,5.43,20.69,6.76l24.36,4.51c4.76.89,9.74,1.76,14.38.36s8.73-5.84,8-10.63c24.11,19.56,60,23.24,87.55,9,17.58,18.41,47,24.36,70.32,14.25,5.7-2.47,11-5.79,16.94-7.72,11.46-3.74,23.86-2,35.91-1.58,28.3.89,58.32-7.26,77.25-28.32s22.63-56.65,3.2-77.25c11.57-15.7,22-33.27,23.58-52.71s-8-40.94-26.29-47.7c30.9,1.15,56.21-32.33,51.33-62.87S546.74,266,516,262.86c9.78-31.85-5.38-69.53-34.49-85.73-9.16-5.1-22-7.59-29.08.17,16.57-11.08,11.28-39-4.87-50.69S409.9,114.76,390,115.07c-8.13.12-16.6.33-23.78,4.13s-12.53,12.38-9.91,20.06c4.07-10.85-.85-23.48-9.24-31.48s-19.62-12.22-30.69-15.65c-15.07-4.65-35.83-5.81-42.18,8.63-3,6.81-2.43,16.54-9.28,19.44-1.1-7-3.21-15.11-9.72-18-7.9-3.53-17.24,3.65-19.28,12s.92,17.13,3.85,25.27" transform="translate(9 2)"/><rect class="cls-4" x="236.48" y="481.09" width="115.88" height="173.33" rx="57.45" ry="57.45"/><path class="cls-5" d="M284.93,463.51h1A57.63,57.63,0,0,1,343.36,521v38.95c-3.9,14.6-115.88,51.07-115.88,19.47V521A57.62,57.62,0,0,1,284.93,463.51Z" transform="translate(9 2)"/><ellipse class="cls-4" cx="293.42" cy="401.78" rx="134.87" ry="167.49"/><path class="cls-3" d="M430.58,303.16c7.58,1.15,15.4,1.8,22.82-.1s14.45-6.74,17.25-13.87c3.52-9-.21-19-4.47-27.68-.89-1.79-1.82-3.7-1.63-5.69.32-3.19,3.33-5.34,6.13-6.9,11.72-6.54,26.93-13.51,27.1-26.93.15-11.79-12.32-19.78-23.87-22.16-33.89-7-67.4,13.51-92.39,37.43.88-6.4,1.24-14.14-4-18a15.82,15.82,0,0,0-7.33-2.48A63.12,63.12,0,0,0,316.13,236c1.39-7.61-3.85-15.24-10.68-18.86s-14.88-4-22.62-3.85-15.94,1-23.07,4.33-13.25,9.72-14.49,17.51c1.31-7.83-9-11.82-16.87-12.77-15.88-1.94-33.91-3.17-45.91,7.43-2,1.76-3.79,3.83-6.22,4.9-4.74,2.08-10.34-.26-15.37,1-5.41,1.31-9.13,6.64-10.05,12.12s.46,11.09,2.23,16.36c13.6,40.52,50.7,70.23,91.53,82.85,23.94,7.4,49.27,9.64,74.32,8.83,31.81-1,65.82-8.17,87.44-31.54,4.47-4.83,8.34-10.3,13.51-14.39s12.14-6.68,18.39-4.6" transform="translate(9 2)"/><ellipse class="cls-6" cx="204.78" cy="401.05" rx="30.67" ry="31.16"/><circle class="cls-7" cx="209.16" cy="403" r="5.84"/><ellipse class="cls-6" cx="362.64" cy="411.12" rx="33.59" ry="32.62"/><ellipse class="cls-7" cx="373.35" cy="411.61" rx="6.33" ry="5.84"/><ellipse class="cls-8" cx="269" cy="412" rx="4.38" ry="14.61"/><path class="cls-9" d="M241.8,443.33C260,458,290.18,455.39,303,434.8c1-1.63-1.56-3.13-2.58-1.51-11.72,18.85-39.8,21.42-56.51,7.93-1.48-1.19-3.6.9-2.11,2.11Z" transform="translate(9 2)"/></svg>