<svg id="Layer_1" data-name="Layer 1" xmlns="http://www.w3.org/2000/svg" viewBox="0 0 618 850"><defs><style>.cls-1{fill:#ff6;}.cls-2{fill:#fff;}.cls-3{fill:#fc9;}.cls-4{fill:#c99;}.cls-5{fill:#f2f2f2;}.cls-6,.cls-9{fill:#333;}.cls-7{fill:#c60;}.cls-8{fill:#42210b;}.cls-9{stroke:#fff;stroke-miterlimit:10;stroke-width:6px;}</style></defs><title>avatar</title><rect class="cls-1" width="618" height="850"/><path class="cls-2" d="M284.93,662.42A67.52,67.52,0,0,1,217.48,595V559c-30.34-20.15-54.25-53.58-66.51-93.07C122.26,453.94,104,429,104,401a65.27,65.27,0,0,1,15.25-41.63,81.27,81.27,0,0,1,33-23.78c10.38-31.16,27.65-57.88,50.15-77.51,24.6-21.45,53.64-32.78,84-32.78,31.89,0,62.12,12.41,87.43,35.88,23.7,22,41,51.71,50.23,86.11C438.89,360.73,447,378.26,447,397c0,17.1-6.91,33.47-19.54,46.44-9.56,50-36.93,93.06-74.1,116.82V595a67.52,67.52,0,0,1-67.46,67.45Z" transform="translate(9 2)"/><path class="cls-2" d="M284.93,660.92a66.69,66.69,0,0,1-50.6-23.69C223.73,624.55,219,609,219,592.65c0-10.66,1.07-21.89,0-32.49-.12-1.18.05-1.51-.75-2.49-1.32-1.64-4.3-2.95-6-4.21q-3.69-2.75-7.2-5.74a158.57,158.57,0,0,1-21.43-22.3,177.55,177.55,0,0,1-17.69-27.28q-4.05-7.67-7.39-15.69c-2.14-5.17-3.33-11.25-5.88-16.17-1.61-3.1-6-3.91-9.1-5.58a80.28,80.28,0,0,1-14-9.6,71.43,71.43,0,0,1-17.5-22.24,63.23,63.23,0,0,1,3.6-62A75.71,75.71,0,0,1,140,343.36c2.29-1.39,4.64-2.68,7.05-3.85,1.67-.81,5.18-1.57,6.26-2.86s1.45-3.81,2-5.46c1-2.63,2-5.25,3-7.84,17.37-42.34,51.33-80,96.53-92.33,45-12.31,91.33,3.8,123.37,36.6a174.26,174.26,0,0,1,36.08,55.58q3,7.28,5.39,14.79c.86,2.68,1.62,5.37,2.4,8.07s2.4,3.67,4.4,5.74a67.08,67.08,0,0,1,16.74,28.84,62.22,62.22,0,0,1-.39,34,64.74,64.74,0,0,1-6.64,15,68.19,68.19,0,0,1-5.43,7.75C429.46,439.1,427,441,426,443c-1,2.21-1.12,5.56-1.67,7.92s-1.14,4.69-1.76,7q-2.18,8.06-5,15.92a190.32,190.32,0,0,1-13.8,29.89,164.3,164.3,0,0,1-38.84,46.3c-2.11,1.7-4.28,3.34-6.48,4.92-1.49,1.06-4.78,2.52-5.85,4a3.69,3.69,0,0,0-.74,2.74c-.24,5.45,0,11,0,16.41,0,12.36.71,24.78-3.06,36.74a66.66,66.66,0,0,1-38,41.2,68,68,0,0,1-25.88,4.87,1.5,1.5,0,0,0,0,3c38.17,0,69.59-30.68,69.93-69,.09-10.67,0-21.35,0-32,0-3.34,0-1.78,2.78-3.7a144.23,144.23,0,0,0,11.61-8.83,158.32,158.32,0,0,0,22.2-23,188.33,188.33,0,0,0,30.06-55.68q2.85-8.29,5-16.82c.64-2.6,1.07-5.3,1.79-7.87,1-3.68,3.45-5.89,5.75-8.84a68.1,68.1,0,0,0,13.45-29.69c3.83-21.53-3.66-43.24-18.77-58.82-4.28-4.41-5.14-9.95-7.07-15.65s-4-11.1-6.42-16.5a181.87,181.87,0,0,0-16.74-30.07c-25.71-37.24-66.64-64-112.87-63.65-46.86.32-88,28.37-113.21,66.61a185.82,185.82,0,0,0-16.16,30.43c-1.65,3.93-2.9,11.38-6.22,14.07-1.88,1.52-5.12,2.31-7.32,3.48a85.12,85.12,0,0,0-8.17,5c-18.06,12.45-30.82,32.23-31.94,54.43-1,19.1,6.88,37.6,20.22,51.12,7.36,7.45,15.74,11.82,24.62,17.06,4.42,2.6,5.7,11,7.61,15.77q3.12,7.68,6.84,15.07c10,19.81,23.62,38.05,40.5,52.55q5.17,4.46,10.74,8.42c2.92,2.08,2.87.49,2.87,4v18.57c0,13.8-.32,27.19,5,40.29a69,69,0,0,0,64,43.24A1.5,1.5,0,0,0,284.93,660.92Z" transform="translate(9 2)"/><rect class="cls-3" x="236.48" y="481.09" width="115.88" height="173.33" rx="57.45" ry="57.45"/><path class="cls-4" d="M284.93,463.51h1A57.63,57.63,0,0,1,343.36,521v38.95c-3.9,14.6-115.88,51.07-115.88,19.47V521A57.62,57.62,0,0,1,284.93,463.51Z" transform="translate(9 2)"/><ellipse class="cls-3" cx="295.42" cy="404.78" rx="134.87" ry="167.49"/><ellipse class="cls-5" cx="205.78" cy="402.05" rx="30.67" ry="31.16"/><circle class="cls-6" cx="210.16" cy="404" r="5.84"/><ellipse class="cls-5" cx="364.64" cy="401.12" rx="33.59" ry="32.62"/><ellipse class="cls-6" cx="363.35" cy="403.61" rx="6.33" ry="5.84"/><ellipse class="cls-7" cx="287" cy="432" rx="4.38" ry="14.61"/><path class="cls-8" d="M251.14,467.72c8,6.86,18.94,12.93,29.81,11.64,10.48-1.24,18.66-9.33,24.12-17.81.91-1.42-1.35-2.73-2.26-1.32-5,7.79-12.56,15.43-22.22,16.51-10.06,1.12-20.22-4.51-27.6-10.88-1.27-1.09-3.13.75-1.85,1.86Z" transform="translate(9 2)"/><ellipse class="cls-9" cx="196" cy="403" rx="73" ry="62"/><ellipse class="cls-9" cx="373" cy="399" rx="73" ry="62"/><path class="cls-2" d="M261.5,397.69a46.87,46.87,0,0,1,27.13-2.36c1.88.39,2.69-2.5.8-2.9a49.76,49.76,0,0,0-28.73,2.37c-1.77.7-1,3.6.8,2.89Z" transform="translate(9 2)"/><path class="cls-2" d="M141.75,394.68a99,99,0,0,1,30-16.71l-1.85-1.84c-.59,3.88-4.4,7.62-6.63,10.68L156,396.75c-.78,1.07.51,2.57,1.69,2.2l33.67-10.51-1.46-2.51a164.41,164.41,0,0,0-19.36,17.66c-1.32,1.41.8,3.53,2.12,2.12a164.41,164.41,0,0,1,19.36-17.66c1.21-.94-.11-2.93-1.46-2.51l-33.67,10.52,1.7,2.2L167,386.8c2.21-3,5.24-6.05,5.82-9.87.15-1-.65-2.26-1.85-1.85a103.34,103.34,0,0,0-31.32,17.48c-1.49,1.22.64,3.33,2.13,2.12Z" transform="translate(9 2)"/><path class="cls-2" d="M323.92,386.53A65.65,65.65,0,0,1,349.23,378c.46,0,4.84-.84,5.18-.37,1.49,2.09-3.61,5.42-4.73,6.43l-10,9a1.51,1.51,0,0,0,1.46,2.51c9.4-2.42,18.86-4.59,28.38-6.45,2.53-.49,6.92-2.91,6.12,2.07-.29,1.78-2.9,4.56-4,5.78a29.44,29.44,0,0,1-10.57,7.37c-1.76.76-.24,3.35,1.52,2.6a31.51,31.51,0,0,0,12.82-9.87c1.84-2.4,6.33-8.16,2.85-11.05-3.15-2.64-10.9.46-14.15,1.13-8,1.64-15.89,3.5-23.78,5.53l1.46,2.5,8.57-7.72c2.2-2,5-3.92,6.77-6.35,1.62-2.28,1.88-5-1-6.26-3.86-1.68-12,.75-15.87,1.72a69.6,69.6,0,0,0-17.91,7.34,1.5,1.5,0,0,0,1.51,2.59Z" transform="translate(9 2)"/><path class="cls-2" d="M223.64,278.14l9.05-6.93c1.52-1.15,0-3.76-1.51-2.59l-9.05,6.93c-1.52,1.16,0,3.77,1.51,2.59Z" transform="translate(9 2)"/><path class="cls-2" d="M248,261.5h3a1.5,1.5,0,0,0,0-3h-3a1.5,1.5,0,0,0,0,3Z" transform="translate(9 2)"/></svg>